<svg width="19" height="20" viewBox="0 0 19 20" fill="none" xmlns="http://www.w3.org/2000/svg">
<g clip-path="url(#clip0_221_5)">
<path fill-rule="evenodd" clip-rule="evenodd" d="M9.5 0C4.25125 0 0 4.475 0 10C0 14.425 2.71938 18.1625 6.49563 19.4875C6.97063 19.575 7.14875 19.275 7.14875 19.0125C7.14875 18.775 7.13688 17.9875 7.13688 17.15C4.75 17.6125 4.1325 16.5375 3.9425 15.975C3.83563 15.6875 3.3725 14.8 2.96875 14.5625C2.63625 14.375 2.16125 13.9125 2.95687 13.9C3.705 13.8875 4.23938 14.625 4.4175 14.925C5.2725 16.4375 6.63813 16.0125 7.18438 15.75C7.2675 15.1 7.51688 14.6625 7.79 14.4125C5.67625 14.1625 3.4675 13.3 3.4675 9.475C3.4675 8.3875 3.83563 7.4875 4.44125 6.7875C4.34625 6.5375 4.01375 5.5125 4.53625 4.1375C4.53625 4.1375 5.33187 3.875 7.14875 5.1625C7.90875 4.9375 8.71625 4.825 9.52375 4.825C10.3313 4.825 11.1388 4.9375 11.8988 5.1625C13.7156 3.8625 14.5113 4.1375 14.5113 4.1375C15.0338 5.5125 14.7013 6.5375 14.6063 6.7875C15.2119 7.4875 15.58 8.375 15.58 9.475C15.58 13.3125 13.3594 14.1625 11.2456 14.4125C11.59 14.725 11.8869 15.325 11.8869 16.2625C11.8869 17.6 11.875 18.675 11.875 19.0125C11.875 19.275 12.0531 19.5875 12.5281 19.4875C14.414 18.8173 16.0528 17.5414 17.2137 15.8395C18.3747 14.1375 18.9994 12.0952 19 10C19 4.475 14.7488 0 9.5 0Z" fill="black"/>
</g>
<defs>
<clipPath id="clip0_221_5">
<rect width="19" height="20" fill="white"/>
</clipPath>
</defs>
</svg>
