<svg width="31" height="31" viewBox="0 0 31 31" fill="none" xmlns="http://www.w3.org/2000/svg">
<path d="M15.0625 24.25C12.7292 24.1284 10.7604 23.2291 9.15627 21.552C7.5521 19.875 6.75002 17.8576 6.75002 15.5C6.75002 13.0694 7.60072 11.0034 9.3021 9.30204C11.0035 7.60065 13.0695 6.74996 15.5 6.74996C17.8577 6.74996 19.875 7.55204 21.5521 9.15621C23.2292 10.7604 24.1285 12.7291 24.25 15.0625L21.1875 14.151C20.8715 12.8385 20.191 11.7632 19.1459 10.9252C18.1007 10.0861 16.8854 9.66663 15.5 9.66663C13.8959 9.66663 12.5226 10.2378 11.3802 11.3802C10.2379 12.5225 9.66669 13.8958 9.66669 15.5C9.66669 16.8854 10.0862 18.1007 10.9252 19.1458C11.7633 20.1909 12.8386 20.8715 14.1511 21.1875L15.0625 24.25ZM15.5 30.0833C13.4827 30.0833 11.5868 29.7002 9.81252 28.9341C8.03822 28.169 6.49481 27.1302 5.18231 25.8177C3.86981 24.5052 2.83099 22.9618 2.06585 21.1875C1.29974 19.4132 0.916687 17.5173 0.916687 15.5C0.916687 13.4826 1.29974 11.5868 2.06585 9.81246C2.83099 8.03815 3.86981 6.49475 5.18231 5.18225C6.49481 3.86975 8.03822 2.83045 9.81252 2.06433C11.5868 1.2992 13.4827 0.916626 15.5 0.916626C17.5174 0.916626 19.4132 1.2992 21.1875 2.06433C22.9618 2.83045 24.5052 3.86975 25.8177 5.18225C27.1302 6.49475 28.169 8.03815 28.9342 9.81246C29.7003 11.5868 30.0834 13.4826 30.0834 15.5V16.1562C30.0834 16.375 30.0591 16.5937 30.0104 16.8125L27.1667 15.9375V15.5C27.1667 12.243 26.0365 9.48433 23.7761 7.22392C21.5156 4.9635 18.757 3.83329 15.5 3.83329C12.2431 3.83329 9.4844 4.9635 7.22398 7.22392C4.96356 9.48433 3.83335 12.243 3.83335 15.5C3.83335 18.7569 4.96356 21.5156 7.22398 23.776C9.4844 26.0364 12.2431 27.1666 15.5 27.1666H15.9375L16.8125 30.0104C16.5938 30.059 16.375 30.0833 16.1563 30.0833H15.5ZM27.4219 30.302L21.6979 24.5781L20.6042 27.8958C20.4827 28.2361 20.2518 28.3999 19.9115 28.3873C19.5712 28.3756 19.3403 28.1996 19.2188 27.8593L15.9011 16.8125C15.8038 16.5451 15.8646 16.302 16.0834 16.0833C16.3021 15.8645 16.5452 15.8038 16.8125 15.901L27.8594 19.2187C28.1997 19.3402 28.3761 19.5711 28.3888 19.9114C28.4004 20.2517 28.2361 20.4826 27.8959 20.6041L24.5781 21.6979L30.3021 27.4218C30.4479 27.5677 30.5209 27.7378 30.5209 27.9323C30.5209 28.1267 30.4479 28.2968 30.3021 28.4427L28.4427 30.302C28.2969 30.4479 28.1268 30.5208 27.9323 30.5208C27.7379 30.5208 27.5677 30.4479 27.4219 30.302V30.302Z" fill="white"/>
</svg>
