<svg width="64" height="63" viewBox="0 0 64 63" fill="none" xmlns="http://www.w3.org/2000/svg">
<path d="M0 4.51237C0 2.01994 2.104 0 4.7 0H59.3C61.896 0 64 2.01994 64 4.51237V58.4876C64 60.9801 61.896 63 59.3 63H4.7C2.104 63 0 60.9801 0 58.4876V4.51237ZM19.772 52.7389V24.2904H10.168V52.7389H19.772ZM14.972 20.4041C18.32 20.4041 20.404 18.2227 20.404 15.4901C20.344 12.6984 18.324 10.5761 15.036 10.5761C11.748 10.5761 9.6 12.7024 9.6 15.4901C9.6 18.2227 11.684 20.4041 14.908 20.4041H14.972ZM34.604 52.7389V36.8511C34.604 36.0006 34.668 35.1501 34.924 34.5437C35.616 32.8466 37.196 31.0866 39.852 31.0866C43.328 31.0866 44.716 33.6932 44.716 37.5204V52.7389H54.32V36.4219C54.32 27.6806 49.584 23.6171 43.264 23.6171C38.168 23.6171 35.884 26.3734 34.604 28.3146V28.413H34.54C34.5612 28.3801 34.5826 28.3473 34.604 28.3146V24.2904H25.004C25.124 26.9601 25.004 52.7389 25.004 52.7389H34.604Z" fill="black"/>
</svg>
