<svg width="63" height="72" viewBox="0 0 63 72" fill="none" xmlns="http://www.w3.org/2000/svg">
<path d="M56.25 4.5H6.75C3.02344 4.5 0 7.52344 0 11.25V60.75C0 64.4766 3.02344 67.5 6.75 67.5H56.25C59.9766 67.5 63 64.4766 63 60.75V11.25C63 7.52344 59.9766 4.5 56.25 4.5ZM38.9953 58.4578C37.8141 58.6688 37.3781 57.9375 37.3781 57.3328C37.3781 56.5734 37.4062 52.6922 37.4062 49.5562C37.4062 47.3625 36.675 45.9703 35.8172 45.2391C41.0203 44.6625 46.5047 43.9453 46.5047 34.9594C46.5047 32.4 45.5906 31.1203 44.1 29.475C44.3391 28.8703 45.1406 26.3813 43.8609 23.1469C41.9062 22.5422 37.4344 25.6641 37.4344 25.6641C35.5781 25.1437 33.5672 24.8766 31.5844 24.8766C29.6016 24.8766 27.5906 25.1437 25.7344 25.6641C25.7344 25.6641 21.2625 22.5422 19.3078 23.1469C18.0281 26.3672 18.8156 28.8563 19.0688 29.475C17.5781 31.1203 16.875 32.4 16.875 34.9594C16.875 43.9031 22.1203 44.6625 27.3234 45.2391C26.6484 45.8438 26.0437 46.8844 25.8328 48.375C24.4969 48.9797 21.0797 50.0203 19.0406 46.4203C17.7609 44.1984 15.4547 44.0156 15.4547 44.0156C13.1766 43.9875 15.3 45.45 15.3 45.45C16.8188 46.1531 17.8875 48.8531 17.8875 48.8531C19.2516 53.0297 25.7766 51.6234 25.7766 51.6234C25.7766 53.5781 25.8047 56.7563 25.8047 57.3328C25.8047 57.9375 25.3828 58.6688 24.1875 58.4578C14.9062 55.35 8.40937 46.5187 8.40937 36.1969C8.40937 23.2875 18.2812 13.4859 31.1906 13.4859C44.1 13.4859 54.5625 23.2875 54.5625 36.1969C54.5766 46.5187 48.2766 55.3641 38.9953 58.4578ZM25.2 49.8656C24.9328 49.9219 24.6797 49.8094 24.6516 49.6266C24.6234 49.4156 24.8063 49.2328 25.0734 49.1766C25.3406 49.1484 25.5937 49.2609 25.6219 49.4438C25.6641 49.6266 25.4812 49.8094 25.2 49.8656ZM23.8641 49.7391C23.8641 49.9219 23.6531 50.0766 23.3719 50.0766C23.0625 50.1047 22.8516 49.95 22.8516 49.7391C22.8516 49.5563 23.0625 49.4016 23.3438 49.4016C23.6109 49.3734 23.8641 49.5281 23.8641 49.7391ZM21.9375 49.5844C21.8812 49.7672 21.6 49.8516 21.3609 49.7672C21.0937 49.7109 20.9109 49.5 20.9672 49.3172C21.0234 49.1344 21.3047 49.05 21.5437 49.1063C21.825 49.1906 22.0078 49.4016 21.9375 49.5844ZM20.2078 48.825C20.0812 48.9797 19.8141 48.9516 19.6031 48.7406C19.3922 48.5578 19.3359 48.2906 19.4766 48.1641C19.6031 48.0094 19.8703 48.0375 20.0813 48.2484C20.2641 48.4313 20.3344 48.7125 20.2078 48.825ZM18.9281 47.5453C18.8016 47.6297 18.5625 47.5453 18.4078 47.3344C18.2531 47.1234 18.2531 46.8844 18.4078 46.7859C18.5625 46.6594 18.8016 46.7578 18.9281 46.9688C19.0828 47.1797 19.0828 47.4328 18.9281 47.5453V47.5453ZM18.0141 46.1812C17.8875 46.3078 17.6766 46.2375 17.5219 46.0969C17.3672 45.9141 17.3391 45.7031 17.4656 45.6047C17.5922 45.4781 17.8031 45.5484 17.9578 45.6891C18.1125 45.8719 18.1406 46.0828 18.0141 46.1812ZM17.0719 45.1406C17.0156 45.2672 16.8328 45.2953 16.6781 45.1969C16.4953 45.1125 16.4109 44.9578 16.4672 44.8312C16.5234 44.7469 16.6781 44.7047 16.8609 44.775C17.0438 44.8734 17.1281 45.0281 17.0719 45.1406Z" fill="#3E3D42"/>
</svg>
