<svg width="1728" height="363" viewBox="0 0 1728 363" fill="none" xmlns="http://www.w3.org/2000/svg">
<path fill-rule="evenodd" clip-rule="evenodd" d="M0 67.9149L47.52 74.0625C96.48 80.2101 191.52 92.5053 288 80.2101C384.48 67.9149 479.52 31.0293 576 12.5865C672.48 -5.85636 767.52 -5.85636 864 24.8817C960.48 55.6197 1055.52 117.096 1152 129.391C1248.48 141.686 1343.52 104.801 1440 104.801C1536.48 104.801 1631.52 141.686 1680.48 160.129L1728 178.572V363H1680.48C1631.52 363 1536.48 363 1440 363C1343.52 363 1248.48 363 1152 363C1055.52 363 960.48 363 864 363C767.52 363 672.48 363 576 363C479.52 363 384.48 363 288 363C191.52 363 96.48 363 47.52 363H0V67.9149Z" fill="#EFF0EF"/>
</svg>
